<mxfile host="app.diagrams.net" modified="2022-03-17T04:28:58.227Z" agent="5.0 (Windows NT 10.0; Win64; x64) AppleWebKit/537.36 (KHTML, like Gecko) Chrome/99.0.4844.74 Safari/537.36" etag="6viv6C_4UbehnJsJIITQ" version="17.1.3" type="github">
  <diagram id="FoPGebU01gfu1zgN4VEG" name="Page-1">
    <mxGraphModel dx="1422" dy="762" grid="1" gridSize="10" guides="1" tooltips="1" connect="1" arrows="1" fold="1" page="1" pageScale="1" pageWidth="850" pageHeight="1100" math="0" shadow="0">
      <root>
        <mxCell id="0" />
        <mxCell id="1" parent="0" />
        <mxCell id="WsXwZK5vGELwPiEr5Gf0-1" value="Students" style="rounded=0;whiteSpace=wrap;html=1;fillColor=#ffe6cc;strokeColor=#d79b00;" parent="1" vertex="1">
          <mxGeometry x="368" y="410" width="120" height="60" as="geometry" />
        </mxCell>
        <mxCell id="WsXwZK5vGELwPiEr5Gf0-2" value="&lt;u&gt;SID&lt;/u&gt;" style="ellipse;whiteSpace=wrap;html=1;fillColor=#d5e8d4;strokeColor=#82b366;" parent="1" vertex="1">
          <mxGeometry x="383" y="330" width="85" height="30" as="geometry" />
        </mxCell>
        <mxCell id="WsXwZK5vGELwPiEr5Gf0-3" value="name" style="ellipse;whiteSpace=wrap;html=1;fillColor=#d5e8d4;strokeColor=#82b366;" parent="1" vertex="1">
          <mxGeometry x="488" y="330" width="85" height="30" as="geometry" />
        </mxCell>
        <mxCell id="WsXwZK5vGELwPiEr5Gf0-4" value="age" style="ellipse;whiteSpace=wrap;html=1;fillColor=#d5e8d4;strokeColor=#82b366;" parent="1" vertex="1">
          <mxGeometry x="278" y="330" width="85" height="30" as="geometry" />
        </mxCell>
        <mxCell id="WsXwZK5vGELwPiEr5Gf0-5" value="" style="endArrow=none;html=1;rounded=0;exitX=0.5;exitY=0;exitDx=0;exitDy=0;entryX=0.5;entryY=1;entryDx=0;entryDy=0;" parent="1" source="WsXwZK5vGELwPiEr5Gf0-1" target="WsXwZK5vGELwPiEr5Gf0-2" edge="1">
          <mxGeometry width="50" height="50" relative="1" as="geometry">
            <mxPoint x="438" y="640" as="sourcePoint" />
            <mxPoint x="488" y="590" as="targetPoint" />
          </mxGeometry>
        </mxCell>
        <mxCell id="WsXwZK5vGELwPiEr5Gf0-6" value="" style="endArrow=none;html=1;rounded=0;exitX=0.5;exitY=0;exitDx=0;exitDy=0;entryX=0.5;entryY=1;entryDx=0;entryDy=0;" parent="1" source="WsXwZK5vGELwPiEr5Gf0-1" target="WsXwZK5vGELwPiEr5Gf0-3" edge="1">
          <mxGeometry width="50" height="50" relative="1" as="geometry">
            <mxPoint x="438" y="420" as="sourcePoint" />
            <mxPoint x="435.5" y="370" as="targetPoint" />
          </mxGeometry>
        </mxCell>
        <mxCell id="WsXwZK5vGELwPiEr5Gf0-7" value="" style="endArrow=none;html=1;rounded=0;exitX=0.5;exitY=0;exitDx=0;exitDy=0;entryX=0.5;entryY=1;entryDx=0;entryDy=0;" parent="1" source="WsXwZK5vGELwPiEr5Gf0-1" target="WsXwZK5vGELwPiEr5Gf0-4" edge="1">
          <mxGeometry width="50" height="50" relative="1" as="geometry">
            <mxPoint x="448" y="430" as="sourcePoint" />
            <mxPoint x="445.5" y="380" as="targetPoint" />
          </mxGeometry>
        </mxCell>
        <mxCell id="H0yZhZxrJYGHTd17WGsc-1" value="Department" style="rounded=0;whiteSpace=wrap;html=1;fillColor=#ffe6cc;strokeColor=#d79b00;" vertex="1" parent="1">
          <mxGeometry x="590" y="120" width="120" height="60" as="geometry" />
        </mxCell>
        <mxCell id="H0yZhZxrJYGHTd17WGsc-2" value="&lt;u&gt;name&lt;/u&gt;" style="ellipse;whiteSpace=wrap;html=1;fillColor=#d5e8d4;strokeColor=#82b366;" vertex="1" parent="1">
          <mxGeometry x="550" y="60" width="85" height="30" as="geometry" />
        </mxCell>
        <mxCell id="H0yZhZxrJYGHTd17WGsc-3" value="address" style="ellipse;whiteSpace=wrap;html=1;fillColor=#d5e8d4;strokeColor=#82b366;" vertex="1" parent="1">
          <mxGeometry x="680" y="60" width="85" height="30" as="geometry" />
        </mxCell>
        <mxCell id="H0yZhZxrJYGHTd17WGsc-4" value="" style="endArrow=none;html=1;rounded=0;exitX=0.5;exitY=0;exitDx=0;exitDy=0;entryX=0.5;entryY=1;entryDx=0;entryDy=0;" edge="1" parent="1" source="H0yZhZxrJYGHTd17WGsc-1" target="H0yZhZxrJYGHTd17WGsc-2">
          <mxGeometry width="50" height="50" relative="1" as="geometry">
            <mxPoint x="400" y="110" as="sourcePoint" />
            <mxPoint x="450" y="60" as="targetPoint" />
          </mxGeometry>
        </mxCell>
        <mxCell id="H0yZhZxrJYGHTd17WGsc-5" value="" style="endArrow=none;html=1;rounded=0;entryX=0.5;entryY=1;entryDx=0;entryDy=0;exitX=0.5;exitY=0;exitDx=0;exitDy=0;" edge="1" parent="1" source="H0yZhZxrJYGHTd17WGsc-1" target="H0yZhZxrJYGHTd17WGsc-3">
          <mxGeometry width="50" height="50" relative="1" as="geometry">
            <mxPoint x="660" y="130" as="sourcePoint" />
            <mxPoint x="602.5" y="100" as="targetPoint" />
          </mxGeometry>
        </mxCell>
        <mxCell id="H0yZhZxrJYGHTd17WGsc-6" value="Course" style="rounded=0;whiteSpace=wrap;html=1;fillColor=#ffe6cc;strokeColor=#d79b00;" vertex="1" parent="1">
          <mxGeometry x="140" y="130" width="120" height="60" as="geometry" />
        </mxCell>
        <mxCell id="H0yZhZxrJYGHTd17WGsc-7" value="number" style="ellipse;whiteSpace=wrap;html=1;fillColor=#d5e8d4;strokeColor=#82b366;" vertex="1" parent="1">
          <mxGeometry x="157.5" y="60" width="85" height="30" as="geometry" />
        </mxCell>
        <mxCell id="H0yZhZxrJYGHTd17WGsc-8" value="name&lt;span style=&quot;color: rgba(0 , 0 , 0 , 0) ; font-family: monospace ; font-size: 0px&quot;&gt;%3CmxGraphModel%3E%3Croot%3E%3CmxCell%20id%3D%220%22%2F%3E%3CmxCell%20id%3D%221%22%20parent%3D%220%22%2F%3E%3CmxCell%20id%3D%222%22%20value%3D%22address%22%20style%3D%22ellipse%3BwhiteSpace%3Dwrap%3Bhtml%3D1%3BfillColor%3D%23d5e8d4%3BstrokeColor%3D%2382b366%3B%22%20vertex%3D%221%22%20parent%3D%221%22%3E%3CmxGeometry%20x%3D%22680%22%20y%3D%22370%22%20width%3D%2285%22%20height%3D%2230%22%20as%3D%22geometry%22%2F%3E%3C%2FmxCell%3E%3C%2Froot%3E%3C%2FmxGraphModel%3E&lt;/span&gt;" style="ellipse;whiteSpace=wrap;html=1;fillColor=#d5e8d4;strokeColor=#82b366;" vertex="1" parent="1">
          <mxGeometry x="260" y="60" width="85" height="30" as="geometry" />
        </mxCell>
        <mxCell id="H0yZhZxrJYGHTd17WGsc-9" value="capacity" style="ellipse;whiteSpace=wrap;html=1;fillColor=#d5e8d4;strokeColor=#82b366;" vertex="1" parent="1">
          <mxGeometry x="50" y="60" width="85" height="30" as="geometry" />
        </mxCell>
      </root>
    </mxGraphModel>
  </diagram>
</mxfile>
